# xmcd CD database file
#
# Track frame offsets:
#	187
#	19130
#	35390
#	48967
#	65915
#	77560
#	96360
#	99815
#	115630
#	131602
#	148037
#	160590
#	179655
#	189167
#	205405
#	210542
#	223530
#	226735
#	240330
#
# Disc length: 3228 seconds
#
# Revision: 0
# Processed by: cddbd v1.5.2PL0 Copyright (c) Steve Scherf et al.
# Submitted via: CDex 1.70beta2
#
DISCID=fb0c9a13
DTITLE=Marian McPartland - Piano Jazz With Red Richards
DYEAR=1994
DGENRE=Jazz
TTITLE0=Conversation
TTITLE1=Have You Met Miss Jones?
TTITLE2=Conversation
TTITLE3=What A Wonderful World
TTITLE4=Conversation
TTITLE5=Tangerine
TTITLE6=Conversation
TTITLE7=A Hundred Years From Today
TTITLE8=Conversation
TTITLE9=Keepin' Out Of Mischief Now
TTITLE10=Conversation
TTITLE11=Echoes Of Spring
TTITLE12=Conversation
TTITLE13=Someday You'll Be Sorry
TTITLE14=Conversation
TTITLE15=The Talk Of The Town
TTITLE16=Conversation
TTITLE17=Runnin' Wild
TTITLE18=Conversation
EXTD=YEAR: 1994
EXTT0=
EXTT1=
EXTT2=
EXTT3=
EXTT4=
EXTT5=
EXTT6=
EXTT7=
EXTT8=
EXTT9=
EXTT10=
EXTT11=
EXTT12=
EXTT13=
EXTT14=
EXTT15=
EXTT16=
EXTT17=
EXTT18=
PLAYORDER=
